<svg width="195" height="42" viewBox="0 0 195 42" fill="none" xmlns="http://www.w3.org/2000/svg">
<path d="M0.558594 7.06836C1.97656 6.59961 3.30664 6.16602 4.54883 5.76758C5.80273 5.36914 7.12109 4.99414 8.50391 4.64258C9.88672 4.2793 11.2109 3.99219 12.4766 3.78125C13.4492 3.61719 14.4453 3.53516 15.4648 3.53516C17.1641 3.53516 18.2773 3.58203 18.8047 3.67578C19.6016 3.82813 20.3516 4.07422 21.0547 4.41406C21.7695 4.75391 22.4023 5.21094 22.9531 5.78516C23.5156 6.34766 23.9727 7.01562 24.3242 7.78906C24.4648 8.10547 24.5352 8.43945 24.5352 8.79102C24.5352 10.1035 23.8145 11.7207 22.373 13.6426C20.9434 15.5645 19.502 17.2402 18.0488 18.6699C16.6074 20.0996 15.5293 21.125 14.8145 21.7461L17.9785 32.8379L13.373 36.1602L5.30469 13.1152C5.28125 13.1152 5.16992 13.2266 4.9707 13.4492C4.77148 13.6719 4.50781 13.9648 4.17969 14.3281C3.86328 14.6797 3.66406 14.8965 3.58203 14.9785C3.54688 14.9785 3.42969 14.7266 3.23047 14.2227C3.04297 13.7187 2.78516 13.0215 2.45703 12.1309C2.14062 11.2285 1.7832 10.2324 1.38477 9.14258C0.974609 8.04102 0.699219 7.34961 0.558594 7.06836ZM11.9316 11.9551L13.373 17.1406C14.0996 16.4023 15.002 15.3945 16.0801 14.1172C17.1582 12.8398 17.6973 11.9141 17.6973 11.3398C17.6973 11.1172 17.6035 10.9883 17.416 10.9531C16.8887 10.8359 16.3672 10.7773 15.8516 10.7773C14.3047 10.7773 12.998 11.1699 11.9316 11.9551ZM37.7363 15.9629C38.5684 16.4082 39.2422 17.0117 39.7578 17.7734C40.2852 18.5234 40.666 19.373 40.9004 20.3223C41.1465 21.2598 41.2695 22.2383 41.2695 23.2578C41.2695 24.1016 41.1992 24.916 41.0586 25.7012C40.9297 26.4863 40.748 27.207 40.5137 27.8633C40.2793 28.5195 40.0039 29.0762 39.6875 29.5332C38.9492 30.6348 38.1582 31.584 37.3145 32.3809C36.4707 33.1777 35.6094 33.8223 34.7305 34.3145C33.8516 34.7949 32.9785 35.1465 32.1113 35.3691C31.2559 35.6035 30.4062 35.7207 29.5625 35.7207C28.5664 35.7207 27.6172 35.5625 26.7148 35.2461C25.8242 34.9414 25.0625 34.5371 24.4297 34.0332C23.3867 33.166 22.5723 32 21.9863 30.5352C21.4004 29.0586 21.1074 27.5 21.1074 25.8594C21.1074 23.0352 21.9219 20.7559 23.5508 19.0215C24.9453 17.5332 26.3867 16.4141 27.875 15.6641C29.3633 14.9023 30.8867 14.5215 32.4453 14.5215C33.3594 14.5215 34.2383 14.6387 35.082 14.873C35.9258 15.0957 36.8105 15.459 37.7363 15.9629ZM36.6992 18.916C36.5 19.8066 36.0664 20.5918 35.3984 21.2715C34.7422 21.9512 34.0977 22.291 33.4648 22.291C33.1484 22.291 32.8672 22.209 32.6211 22.0449C32.2695 21.7637 32.0938 21.2715 32.0938 20.5684C32.0938 20.0293 32.2695 19.4961 32.6211 18.9688C32.9844 18.4414 33.5527 18.0254 34.3262 17.7207C33.5527 17.7207 32.8027 17.8672 32.0762 18.1602C31.3613 18.4531 30.7461 18.834 30.2305 19.3027C29.7148 19.7598 29.2988 20.2812 28.9824 20.8672C28.6777 21.4414 28.5254 22.0215 28.5254 22.6074C28.5254 23.6973 29.0293 24.5645 30.0371 25.209C30.9746 25.8066 31.8652 26.1055 32.709 26.1055C33.541 26.1055 34.2793 25.8301 34.9238 25.2793C35.5684 24.7168 36.0605 24.002 36.4004 23.1348C36.7402 22.2559 36.9102 21.3887 36.9102 20.5332C36.9102 19.9473 36.8398 19.4082 36.6992 18.916ZM38.3516 5.62695L47.2812 1.88281L48.582 22.1855L55.9297 18.1602L63.5586 19.3027L53.6094 26.9316L62.9785 33.998L63.4004 41.0469L49.584 31.1152L50.0234 39.7461L41.6562 39.9043L40.0742 9.37109L37.4902 9.95117L38.3516 5.62695ZM75.793 25.2793L80.0293 30.3945C79.6895 31.3789 78.8809 32.2812 77.6035 33.1016C76.3379 33.9219 74.8262 34.5664 73.0684 35.0352C71.3223 35.5156 69.5762 35.7559 67.8301 35.7559C66.2832 35.7559 64.9004 35.5508 63.6816 35.1406C62.4746 34.7305 61.543 34.1094 60.8867 33.2773C59.75 31.8477 59.1816 30.0195 59.1816 27.793C59.1816 26.0352 59.498 24.3066 60.1309 22.6074C60.7754 20.8965 61.4551 19.7012 62.1699 19.0215C63.0254 18.2129 63.9512 17.5391 64.9473 17C65.9551 16.4609 66.998 16.0566 68.0762 15.7871C69.1543 15.5176 70.2617 15.3828 71.3984 15.3828C72.8867 15.3828 74.2988 15.623 75.6348 16.1035C76.9824 16.5723 78.1602 17.2578 79.168 18.1602L69.5176 29.6738C70.373 29.6738 71.1816 29.498 71.9434 29.1465C72.7168 28.7832 73.4258 28.2734 74.0703 27.6172C74.7148 26.9492 75.2891 26.1699 75.793 25.2793ZM70.9238 21.1836C70.3496 20.8906 69.7637 20.7441 69.166 20.7441C68.5332 20.7441 67.918 20.873 67.3203 21.1309C66.7344 21.3887 66.3184 21.6934 66.0723 22.0449C65.3457 22.9824 64.9824 24.0137 64.9824 25.1387C64.9824 25.5488 65.0234 25.9414 65.1055 26.3164C65.1875 26.6914 65.3281 27.207 65.5273 27.8633L70.9238 21.1836ZM76.8652 7.78906C78.1777 5 80.9141 3.60547 85.0742 3.60547C87.2656 3.60547 89.5742 3.91602 92 4.53711C94.4258 5.14648 97.3027 5.99023 100.631 7.06836C100.373 7.6543 99.8223 9.11914 98.9785 11.4629C98.1348 13.8066 97.6777 14.9785 97.6074 14.9785C97.5137 14.8848 96.9746 14.5801 95.9902 14.0645C95.0176 13.5371 93.9512 13.0273 92.791 12.5352C91.6426 12.043 90.7051 11.7559 89.9785 11.6738C89.6504 11.6387 88.8828 11.457 87.6758 11.1289C86.4805 10.8008 85.5898 10.6367 85.0039 10.6367C84.4648 10.6367 84.0547 10.7422 83.7734 10.9531C83.293 11.293 83.0527 11.6914 83.0527 12.1484C83.0527 12.5703 83.252 13.0332 83.6504 13.5371C84.0488 14.0293 84.5703 14.5215 85.2148 15.0137C85.8594 15.5059 86.5742 15.9863 87.3594 16.4551C88.1445 16.9238 88.918 17.3457 89.6797 17.7207C91.25 18.4941 92.6094 19.3789 93.7578 20.375C94.918 21.3594 95.8203 22.3438 96.4648 23.3281C97.1094 24.3125 97.5781 25.3145 97.8711 26.334C98.1758 27.3418 98.3281 28.2969 98.3281 29.1992C98.3281 30.2656 98.1348 31.2383 97.748 32.1172C97.0332 33.6289 95.9844 34.7246 94.6016 35.4043C93.2188 36.0957 91.5664 36.4414 89.6445 36.4414C88.543 36.4414 87.3008 36.3242 85.918 36.0898C84.5469 35.8672 83.2168 35.5801 81.9277 35.2285C80.6504 34.8887 79.2969 34.4961 77.8672 34.0508C76.4492 33.5938 75.2012 33.1895 74.123 32.8379C74.2988 32.4746 74.5859 31.7598 74.9844 30.6934C75.3711 29.6152 75.7051 28.6836 75.9863 27.8984C76.2559 27.1133 76.5078 26.4219 76.7422 25.8242C76.9648 25.2266 77.0996 24.9277 77.1465 24.9277C77.4746 25.1973 78.5762 25.7891 80.4512 26.7031C82.3262 27.6055 83.7734 28.1152 84.793 28.2324C85.168 28.2676 85.8066 28.4082 86.709 28.6543C87.6113 28.9004 88.2266 29.0645 88.5547 29.1465C88.8945 29.2285 89.293 29.2695 89.75 29.2695C90.2891 29.2695 90.6992 29.1641 90.9805 28.9531C91.5078 28.5664 91.7715 28.1562 91.7715 27.7227C91.7715 26.7617 90.5469 25.6367 88.0977 24.3477C86.5977 23.5625 84.9277 22.4668 83.0879 21.0605C81.2598 19.6426 79.6543 18.0078 78.2715 16.1562C76.9004 14.293 76.2148 12.4355 76.2148 10.584C76.2148 9.63477 76.4316 8.70312 76.8652 7.78906ZM113.586 25.2793L117.822 30.3945C117.482 31.3789 116.674 32.2812 115.396 33.1016C114.131 33.9219 112.619 34.5664 110.861 35.0352C109.115 35.5156 107.369 35.7559 105.623 35.7559C104.076 35.7559 102.693 35.5508 101.475 35.1406C100.268 34.7305 99.3359 34.1094 98.6797 33.2773C97.543 31.8477 96.9746 30.0195 96.9746 27.793C96.9746 26.0352 97.291 24.3066 97.9238 22.6074C98.5684 20.8965 99.248 19.7012 99.9629 19.0215C100.818 18.2129 101.744 17.5391 102.74 17C103.748 16.4609 104.791 16.0566 105.869 15.7871C106.947 15.5176 108.055 15.3828 109.191 15.3828C110.68 15.3828 112.092 15.623 113.428 16.1035C114.775 16.5723 115.953 17.2578 116.961 18.1602L107.311 29.6738C108.166 29.6738 108.975 29.498 109.736 29.1465C110.51 28.7832 111.219 28.2734 111.863 27.6172C112.508 26.9492 113.082 26.1699 113.586 25.2793ZM108.717 21.1836C108.143 20.8906 107.557 20.7441 106.959 20.7441C106.326 20.7441 105.711 20.873 105.113 21.1309C104.527 21.3887 104.111 21.6934 103.865 22.0449C103.139 22.9824 102.775 24.0137 102.775 25.1387C102.775 25.5488 102.816 25.9414 102.898 26.3164C102.98 26.6914 103.121 27.207 103.32 27.8633L108.717 21.1836ZM127.051 17.791C126.406 17.873 125.768 18.0781 125.135 18.4062C124.514 18.7344 123.98 19.1211 123.535 19.5664C123.09 20.0117 122.738 20.5039 122.48 21.043C122.234 21.5703 122.111 22.0918 122.111 22.6074C122.111 23.6738 122.615 24.541 123.623 25.209C124.514 25.8066 125.416 26.1055 126.33 26.1055C126.506 26.1055 126.746 26.082 127.051 26.0352V22.291C126.734 22.291 126.453 22.209 126.207 22.0449C125.855 21.7637 125.68 21.2246 125.68 20.4277C125.68 19.2793 126.137 18.4004 127.051 17.791ZM127.191 14.6973L134.539 11.3926L134.68 21.2188C134.773 21.8281 134.82 22.5195 134.82 23.293C134.82 23.9727 134.797 24.4766 134.75 24.8047L134.961 35.5801L127.051 36.002V34.9297C125.762 35.457 124.461 35.7207 123.148 35.7207C122.141 35.7207 121.191 35.5684 120.301 35.2637C119.422 34.959 118.66 34.5488 118.016 34.0332C116.973 33.166 116.158 32 115.572 30.5352C114.986 29.0586 114.693 27.5 114.693 25.8594C114.693 23.0352 115.508 20.7559 117.137 19.0215C118.543 17.5449 119.99 16.4258 121.479 15.6641C122.979 14.9023 124.508 14.5215 126.066 14.5215C126.5 14.5215 126.828 14.5332 127.051 14.5566L127.191 14.6973ZM154.121 17.8613L147.916 21.9043C147.611 21.1191 147.201 20.4512 146.686 19.9004C146.182 19.3379 145.66 19.0566 145.121 19.0566C144.348 19.0566 143.697 19.666 143.17 20.8848C142.666 22.0566 142.414 24.1074 142.414 27.0371C142.414 29.0879 142.52 31.502 142.73 34.2793L134.1 35.2812C133.596 31.6602 133.344 28.4316 133.344 25.5957C133.344 25.127 133.367 24.4824 133.414 23.6621L133.098 13.3965L140.006 12.5352L141.008 13.6953C141.828 13.4141 142.584 13.1738 143.275 12.9746C143.979 12.7754 144.635 12.6172 145.244 12.5C145.854 12.3828 146.445 12.3242 147.02 12.3242C148.18 12.3242 149.199 12.5879 150.078 13.1152C151.191 13.7363 152.07 14.3809 152.715 15.0488C153.371 15.7168 153.84 16.6543 154.121 17.8613ZM168.395 14.1172C169.145 14.5977 169.818 15.2656 170.416 16.1211C171.025 16.9648 171.494 17.75 171.822 18.4766C172.15 19.1914 172.367 19.707 172.473 20.0234L165.951 21.4648C165.846 20.8789 165.535 20.4922 165.02 20.3047C164.504 20.1172 163.965 20.0234 163.402 20.0234C160.426 20.3047 158.938 22.0801 158.938 25.3496C159.02 27.9395 159.834 29.3809 161.381 29.6738C162.119 29.6738 162.787 29.4922 163.385 29.1289C163.982 28.7656 164.492 28.2852 164.914 27.6875C165.348 27.0781 165.705 26.3984 165.986 25.6484L172.508 26.9668C172.438 27.2012 172.268 27.6699 171.998 28.373C171.693 29.1582 170.979 30.207 169.854 31.5195C168.74 32.832 167.498 33.752 166.127 34.2793C164.475 34.9238 162.834 35.2461 161.205 35.2461C158.604 35.2461 156.295 34.3965 154.279 32.6973C153.365 31.9004 152.703 30.9746 152.293 29.9199C151.871 28.8652 151.66 27.752 151.66 26.5801C151.66 25.3613 151.83 24.1602 152.17 22.9766C152.51 21.793 152.926 20.7148 153.418 19.7422C154.062 18.4766 154.771 17.3984 155.545 16.5078C156.318 15.6055 157.127 14.873 157.971 14.3105C158.826 13.7363 159.699 13.3145 160.59 13.0449C161.48 12.7754 162.377 12.6406 163.279 12.6406C165.131 12.6406 166.836 13.1328 168.395 14.1172ZM179.1 14.6973C181.197 14.0059 183.008 13.6602 184.531 13.6602C185.926 13.6602 187.139 13.959 188.17 14.5566C188.791 14.9199 189.488 15.4707 190.262 16.209C191.035 16.9355 191.715 17.7383 192.301 18.6172C192.898 19.4961 193.297 20.3516 193.496 21.1836C194.117 23.6797 194.428 25.8594 194.428 27.7227C194.428 28.707 194.363 29.7441 194.234 30.834C194.105 31.9121 193.906 33.3008 193.637 35L186.289 35.4395C186.312 34.8535 186.324 34.0098 186.324 32.9082C186.324 28.3145 185.691 24.4062 184.426 21.1836C183.934 19.9766 183.453 19.373 182.984 19.373C182.375 19.373 181.701 20.2168 180.963 21.9043C180.787 22.3145 180.641 22.7832 180.523 23.3105C180.418 23.8379 180.336 24.4297 180.277 25.0859C180.23 25.7422 180.207 26.5156 180.207 27.4062C180.207 29.2109 180.312 31.502 180.523 34.2793L171.893 35.2812C171.799 34.6016 171.74 33.8047 171.717 32.8906C171.682 31.9766 171.658 31.0332 171.646 30.0605C171.623 29.0879 171.582 28.2031 171.523 27.4062C171.477 26.5977 171.371 25.6836 171.207 24.6641L170.732 1.74219L177.939 0.863281L179.1 14.6973Z" fill="#1D3557"/>
</svg>
